<svg xmlns="http://www.w3.org/2000/svg" width="120" height="120" viewBox="0 0 120 120">
  <g id="Group_84" data-name="Group 84" transform="translate(-365 -966)">
    <rect id="NoPath_копия_39_" data-name="NoPath — копия (39)" width="120" height="120" transform="translate(365 966)" fill="#fff"/>
    <g id="Filled_outline" data-name="Filled outline" transform="translate(361 962)">
      <rect id="Rectangle_40" data-name="Rectangle 40" width="68" height="98" rx="6" transform="translate(6 6)" fill="#348fd9"/>
      <path id="Path_2190" data-name="Path 2190" d="M22,114H78a6,6,0,0,0,6-6V22a6,6,0,0,0-6-6H34L16,34v74A6,6,0,0,0,22,114Z" fill="#60d1e0"/>
      <path id="Path_2191" data-name="Path 2191" d="M34,28V16L16,34H28a6,6,0,0,0,6-6Z" fill="#8adbe6"/>
      <path id="Path_2192" data-name="Path 2192" d="M108.929,108H67.071A7.071,7.071,0,0,1,60,100.929h0a7.071,7.071,0,0,1,2.071-5h0A6.585,6.585,0,0,0,64,91.272V70A16,16,0,0,1,80,54H96a16,16,0,0,1,16,16V91.272a6.585,6.585,0,0,0,1.929,4.657h0a7.071,7.071,0,0,1,2.071,5h0A7.071,7.071,0,0,1,108.929,108Z" fill="#ffb531"/>
      <path id="Path_2193" data-name="Path 2193" d="M100,42H76l4,12H96Z" fill="#fcac1f"/>
      <path id="Path_2194" data-name="Path 2194" d="M111.44,98.294A13.655,13.655,0,0,0,103.865,96h-.208A13.657,13.657,0,0,0,94,100H77a5,5,0,0,0-5,5h0a4.977,4.977,0,0,0,.431,2.025l-6.937-5.78A5.382,5.382,0,0,0,62.055,100h-.787A5.262,5.262,0,0,0,56,105.259v.092a5.384,5.384,0,0,0,2.075,4.266c3.622,2.815,11.023,8.572,14.3,11.12A5.994,5.994,0,0,0,76.059,122H114V100Z" fill="#fec9a3"/>
      <rect id="Rectangle_41" data-name="Rectangle 41" width="8" height="22" transform="translate(114 100)" fill="#348fd9"/>
      <path id="Path_2195" data-name="Path 2195" d="M9.333,105.544A8.014,8.014,0,0,1,4,98V22H8V98a4.008,4.008,0,0,0,2.667,3.773ZM68,4H12a8.009,8.009,0,0,0-8,8v6H8V12a4,4,0,0,1,4-4H68a4.008,4.008,0,0,1,3.773,2.667l3.771-1.333A8.014,8.014,0,0,0,68,4ZM82,36V22a4,4,0,0,0-4-4H36V28a8.009,8.009,0,0,1-8,8H18v72a4,4,0,0,0,4,4H54v4H22a8.009,8.009,0,0,1-8-8V34a2,2,0,0,1,.586-1.414l18-18A2,2,0,0,1,34,14H78a8.009,8.009,0,0,1,8,8V36ZM32,20.828,20.828,32H28a4,4,0,0,0,4-4ZM40,44v6H66v4H40v6H58v4H40v6H58v4H40v6H58v4H40v6H58v4H40v6H50v4H30a6.007,6.007,0,0,1-6-6V46a6.007,6.007,0,0,1,6-6H70v4ZM36,94H28v4a2,2,0,0,0,2,2h6Zm0-10H28v6h8Zm0-10H28v6h8Zm0-10H28v6h8Zm0-10H28v6h8Zm0-10H30a2,2,0,0,0-2,2v4h8Zm4-12v4H58V32Zm36-8H40v4H76ZM90.513,68H90V66H86v2h-.513a5.487,5.487,0,0,0-1.735,10.692l7.231,2.41a1.487,1.487,0,0,1-.47,2.9H85.487A1.489,1.489,0,0,1,84,82.513V82H80v.513A5.493,5.493,0,0,0,85.487,88H86v2h4V88h.513a5.487,5.487,0,0,0,1.735-10.692L85.017,74.9a1.487,1.487,0,0,1,.47-2.9h5.026A1.488,1.488,0,0,1,92,73.487V74h4v-.513A5.493,5.493,0,0,0,90.513,68Zm-19.17-3L74.8,67A6.057,6.057,0,0,1,77,64.8L75,61.343A10.062,10.062,0,0,0,71.344,65ZM70,80h4V70H70Zm46.144-17.254,3.712-1.492a24.346,24.346,0,0,0-10.922-12.631l-1.867,3.538a20.352,20.352,0,0,1,9.078,10.585ZM124,100v22a2,2,0,0,1-2,2H104v-4h8V101.07l-1.67-1.114a12.1,12.1,0,0,0-14.916,1.458A2,2,0,0,1,94,102H77a3.042,3.042,0,0,0-3,3,2.951,2.951,0,0,0,.255,1.209A3.056,3.056,0,0,0,77,108H92v4H77a6.3,6.3,0,0,1-2.073-.314,6.958,6.958,0,0,1-4.1-3.4l-6.609-5.508a4.23,4.23,0,0,0-3.7-.7,3.412,3.412,0,0,0-1.211,5.955c3.621,2.814,11.025,8.57,14.3,11.12a4.006,4.006,0,0,0,2.451.841H100v4H76.058a8.025,8.025,0,0,1-4.909-1.685c-3.276-2.55-10.678-8.3-14.3-11.119A7.356,7.356,0,0,1,54,105.35v-.09a7.227,7.227,0,0,1,4.3-6.629,9.019,9.019,0,0,1,2.359-4.115A4.6,4.6,0,0,0,62,91.272V70A18.028,18.028,0,0,1,77.293,52.2L74.1,42.632A2,2,0,0,1,76,40h24a2,2,0,0,1,1.9,2.632L98.708,52.2A18,18,0,0,1,114,70V91.272a4.618,4.618,0,0,0,1.344,3.243,9.034,9.034,0,0,1,1.966,2.941c.075.179.142.36.2.544H122A2,2,0,0,1,124,100ZM78.775,44l2.666,8H94.558l2.667-8Zm32.6,51.919A8.646,8.646,0,0,1,110,91.272V70A14,14,0,0,0,96,56H80A14.016,14.016,0,0,0,66,70V91.272a8.6,8.6,0,0,1-2.515,6.072,5.055,5.055,0,0,0-.584.706,7.219,7.219,0,0,1,.728.122l.037.008a7.368,7.368,0,0,1,3.112,1.529l3.612,3.01A6.991,6.991,0,0,1,77,98H93.205a15.779,15.779,0,0,1,10.452-4h.207A15.6,15.6,0,0,1,111.372,95.919ZM120,102h-4v18h4Z"/>
    </g>
  </g>
</svg>
