<svg xmlns="http://www.w3.org/2000/svg" width="120" height="120" viewBox="0 0 120 120">
  <g id="Group_89" data-name="Group 89" transform="translate(-1485 -1650)">
    <rect id="Rectangle_45" data-name="Rectangle 45" width="120" height="120" transform="translate(1485 1650)" fill="#fff"/>
    <g id="help" transform="translate(1485.001 1650)">
      <path id="Path_2155" data-name="Path 2155" d="M55.117.194A59.989,59.989,0,0,0,9.9,93L1.479,115.965a2.069,2.069,0,0,0,2.6,2.675l23.845-7.949A60,60,0,1,0,55.117.194Z" fill="#fc3952"/>
      <path id="Path_2156" data-name="Path 2156" d="M60,93.1a4.139,4.139,0,0,1-4.138-4.138V82.758a4.138,4.138,0,0,1,8.276,0v6.207A4.139,4.139,0,0,1,60,93.1Z" fill="#fff"/>
      <path id="Path_2157" data-name="Path 2157" d="M60,70.407a4.139,4.139,0,0,1-4.138-4.138v-4.2c0-5.88,2.8-12.145,7.5-15.172a6.183,6.183,0,0,0,2.849-5.311,6.653,6.653,0,0,0-6.116-6.414H60.01a6,6,0,0,0-4.219,1.786,6.677,6.677,0,0,0-2,4.719,4.138,4.138,0,1,1-8.276,0,15,15,0,0,1,4.463-10.61A14.2,14.2,0,0,1,60.006,26.9h.2C67.833,27,74.371,33.676,74.48,41.47a14.416,14.416,0,0,1-6.637,12.381c-2.286,1.475-3.705,5.208-3.705,8.218v4.2A4.139,4.139,0,0,1,60,70.407Z" fill="#fff"/>
      <path id="Path_2158" data-name="Path 2158" d="M60,113.793a2.069,2.069,0,0,1,0-4.138A49.655,49.655,0,1,0,10.345,60a2.069,2.069,0,1,1-4.138,0A53.793,53.793,0,1,1,60,113.793Z" fill="#d5354e"/>
    </g>
  </g>
</svg>
