<svg xmlns="http://www.w3.org/2000/svg" width="120" height="120" viewBox="0 0 120 120">
  <g id="Group_88" data-name="Group 88" transform="translate(-1435 -966)">
    <rect id="NoPath_копия_39_" data-name="NoPath — копия (39)" width="120" height="120" transform="translate(1435 966)" fill="#fff"/>
    <g id="chat" transform="translate(1435 966)">
      <g id="Group_82" data-name="Group 82">
        <g id="Group_81" data-name="Group 81">
          <g id="Group_79" data-name="Group 79">
            <path id="Path_2244" data-name="Path 2244" d="M89.5,87.857a2.781,2.781,0,0,1,1.469-3.062c9.988-5.048,16.594-13.8,16.594-23.751,0-12.387-10.235-22.913-24.489-26.753-18.252.845-32.72,12.618-32.72,27.019,0,14.95,15.59,27.07,34.82,27.07h.142a2.645,2.645,0,0,1,2.3,1.315,14.072,14.072,0,0,0,1.339,1.943l1.249-1.173C89.9,89.415,89.632,88.46,89.5,87.857Z" fill="#ffe07d"/>
            <path id="Path_2245" data-name="Path 2245" d="M104.133,84.021C113.683,79.194,120,70.826,120,61.31c0-14.95-15.59-27.07-34.82-27.07a44.557,44.557,0,0,0-7.6.649c15.574,2.7,27.217,13.5,27.217,26.42,0,9.516-6.317,17.884-15.867,22.711a2.659,2.659,0,0,0-1.405,2.928,29.493,29.493,0,0,0,1.444,4.689c5.026,6.223,14.267,7.924,18.1,8.371a.817.817,0,0,0,.785-1.253,37.889,37.889,0,0,1-5.122-11.808,2.659,2.659,0,0,1,1.405-2.928Z" fill="#ffd064"/>
            <path id="Path_2246" data-name="Path 2246" d="M38.142,20.476C16.474,23.277,0,37.909,0,55.548,0,63.922,3.724,71.62,9.954,77.7A2.825,2.825,0,0,1,10.7,80.46c-1.936,7.1-6.126,13.518-8.649,16.945a3.069,3.069,0,0,0,3.2.721c6.333-2.262,9.2-4.685,13.9-9.693a4.093,4.093,0,0,1,4.693-.91q1.6.735,3.285,1.368a9.49,9.49,0,0,0,4.3.613,2.853,2.853,0,0,1,.953.062,54.319,54.319,0,0,0,5.772,1.049l8.709-.281c18.345-5.072,31.481-18.686,31.481-34.688,0-16.5-13.967-30.463-33.211-35.138Z" fill="#95d6a4"/>
            <g id="Group_78" data-name="Group 78">
              <path id="Path_2247" data-name="Path 2247" d="M17.806,87.085c-5.14,5.472-8.086,7.859-15.757,10.32-.332.45-.636.852-.9,1.193a.878.878,0,0,0,.716,1.416c5.062-.126,19.264-1.26,27.862-9.714a2.85,2.85,0,0,1,2.66-.734l-.007-.012a52.908,52.908,0,0,1-9.887-3.382A4.088,4.088,0,0,0,17.806,87.085Z" fill="#78c2a4"/>
              <path id="Path_2248" data-name="Path 2248" d="M45.746,19.984a58.967,58.967,0,0,0-7.6.492c21.645,2.816,38.142,17.445,38.142,35.071S59.8,87.8,38.158,90.616a58.84,58.84,0,0,0,7.587.494c25.265,0,45.746-15.922,45.746-35.563S71.01,19.984,45.746,19.984Z" fill="#78c2a4"/>
            </g>
          </g>
          <g id="Group_80" data-name="Group 80">
            <circle id="Ellipse_38" data-name="Ellipse 38" cx="4.465" cy="4.465" r="4.465" transform="translate(13.102 50.881)" fill="#f0f7ff"/>
            <circle id="Ellipse_39" data-name="Ellipse 39" cx="4.465" cy="4.465" r="4.465" transform="translate(31.006 50.881)" fill="#f0f7ff"/>
            <circle id="Ellipse_40" data-name="Ellipse 40" cx="4.465" cy="4.465" r="4.465" transform="translate(48.911 50.881)" fill="#f0f7ff"/>
            <circle id="Ellipse_41" data-name="Ellipse 41" cx="4.465" cy="4.465" r="4.465" transform="translate(66.814 50.881)" fill="#f0f7ff"/>
          </g>
        </g>
      </g>
    </g>
  </g>
</svg>
