<svg xmlns="http://www.w3.org/2000/svg" width="120" height="120" viewBox="0 0 120 120">
  <g id="Group_83" data-name="Group 83" transform="translate(-365 -1242)">
    <rect id="NoPath_копия_39_" data-name="NoPath — копия (39)" width="120" height="120" transform="translate(365 1242)" fill="#fff"/>
    <g id="surface1" transform="translate(373.788 1242)">
      <path id="Path_2238" data-name="Path 2238" d="M96.909,80.135a60.542,60.542,0,0,1-14.5,22.589c-7.281,7.11-16.815,12.76-28.338,16.79a8.67,8.67,0,0,1-2.754.486h-.1a8.792,8.792,0,0,1-1.69-.167,9.155,9.155,0,0,1-1.162-.317c-11.537-4.024-21.083-9.671-28.371-16.781a60.427,60.427,0,0,1-14.5-22.584C-.364,64.258-.031,46.75.237,32.68l0-.216C.3,31.3.331,30.082.35,28.734A12.718,12.718,0,0,1,12.326,16.274C26.123,15.5,36.8,11,45.915,2.116L46,2.043a7.687,7.687,0,0,1,10.436,0l.078.073C65.63,11,76.3,15.5,90.1,16.274a12.718,12.718,0,0,1,11.976,12.459c.019,1.357.054,2.575.108,3.73l0,.091C102.455,46.652,102.786,64.195,96.909,80.135Zm0,0" fill="#00dd80"/>
      <path id="Path_2239" data-name="Path 2239" d="M96.909,80.135a60.542,60.542,0,0,1-14.5,22.589c-7.281,7.11-16.815,12.76-28.338,16.79a8.67,8.67,0,0,1-2.754.486V0a7.7,7.7,0,0,1,5.115,2.042l.078.073C65.63,11,76.3,15.5,90.1,16.274a12.718,12.718,0,0,1,11.976,12.459c.019,1.357.054,2.575.108,3.73l0,.091C102.455,46.652,102.786,64.195,96.909,80.135Zm0,0" fill="#00aa63"/>
      <path id="Path_2240" data-name="Path 2240" d="M81.118,60a29.944,29.944,0,0,1-29.8,29.907h-.105a29.907,29.907,0,1,1,0-59.814h.105A29.944,29.944,0,0,1,81.118,60Zm0,0" fill="#fff"/>
      <path id="Path_2241" data-name="Path 2241" d="M81.118,60a29.944,29.944,0,0,1-29.8,29.907V30.093A29.944,29.944,0,0,1,81.118,60Zm0,0" fill="#e1ebf0"/>
      <path id="Path_2242" data-name="Path 2242" d="M64.785,55.693,51.316,69.165l-2.91,2.91a3.525,3.525,0,0,1-4.981,0l-6.258-6.26a3.52,3.52,0,0,1,4.979-4.979l3.77,3.77L59.807,50.715a3.52,3.52,0,0,1,4.979,4.979Zm0,0" fill="#b4d2d7"/>
      <path id="Path_2243" data-name="Path 2243" d="M64.785,55.693,51.316,69.165V59.2l8.491-8.49a3.52,3.52,0,0,1,4.979,4.979Zm0,0" fill="#6fa5aa"/>
    </g>
  </g>
</svg>
