<svg xmlns="http://www.w3.org/2000/svg" width="120" height="120" viewBox="0 0 120 120">
  <g id="Group_90" data-name="Group 90" transform="translate(-1087 -1650)">
    <rect id="Rectangle_44" data-name="Rectangle 44" width="120" height="120" transform="translate(1087 1650)" fill="#fff"/>
    <g id="computer" transform="translate(1087 1650)">
      <g id="Group_16" data-name="Group 16">
        <path id="Path_2159" data-name="Path 2159" d="M120,74.587V13.621a7.258,7.258,0,0,0-7.258-7.258H7.258A7.258,7.258,0,0,0,0,13.621V74.587l60,2.177Z" fill="#bed8fb"/>
        <path id="Path_2160" data-name="Path 2160" d="M0,74.587v4.355l60,2.177,60-2.177V74.587Z" fill="#a3caf7"/>
        <path id="Path_2161" data-name="Path 2161" d="M104.042,17.757H15.958a3.629,3.629,0,0,0-3.629,3.629V32.131L60,34.24l47.671-2.109V21.386A3.629,3.629,0,0,0,104.042,17.757Z" fill="#434d59"/>
        <path id="Path_2162" data-name="Path 2162" d="M107.671,74.587,60,76.7,12.329,74.587V32.131h95.343Z" fill="#eceaec"/>
        <path id="Path_2163" data-name="Path 2163" d="M12.329,78.942,60,81.051l47.673-2.109V74.587H12.329Z" fill="#dad8db"/>
        <path id="Path_2164" data-name="Path 2164" d="M95.217,56.625V42.639a1.21,1.21,0,0,0-1.21-1.21H25.989a1.21,1.21,0,0,0-1.21,1.21V56.625L60,58.735Z" fill="#df667c"/>
        <path id="Path_2165" data-name="Path 2165" d="M25.989,60.98H94.007a1.21,1.21,0,0,0,1.21-1.21V56.626H24.779v3.145a1.21,1.21,0,0,0,1.21,1.21Z" fill="#dc4857"/>
        <path id="Path_2166" data-name="Path 2166" d="M55.656,74.587,40.218,76.7,24.779,74.587V70.248a1.21,1.21,0,0,1,1.21-1.21H54.446a1.21,1.21,0,0,1,1.21,1.21v4.339Z" fill="#edc963"/>
        <path id="Path_2167" data-name="Path 2167" d="M95.221,74.587,79.782,76.7,64.344,74.587V70.248a1.21,1.21,0,0,1,1.21-1.21H94.011a1.21,1.21,0,0,1,1.21,1.21v4.339Z" fill="#edc963"/>
        <path id="Path_2168" data-name="Path 2168" d="M24.779,78.942l15.438,2.109,15.438-2.109V74.587H24.779Z" fill="#e7b93e"/>
        <path id="Path_2169" data-name="Path 2169" d="M64.344,78.942l15.438,2.109,15.438-2.109V74.587H64.344Z" fill="#e7b93e"/>
        <path id="Path_2170" data-name="Path 2170" d="M20.988,21.945a2.792,2.792,0,1,0,2.793,2.793A2.8,2.8,0,0,0,20.988,21.945Z" fill="#df667c"/>
        <path id="Path_2171" data-name="Path 2171" d="M29.949,21.945a2.792,2.792,0,1,0,2.793,2.793,2.8,2.8,0,0,0-2.793-2.793Z" fill="#edc963"/>
        <path id="Path_2172" data-name="Path 2172" d="M38.911,21.945A2.792,2.792,0,1,0,41.7,24.738,2.8,2.8,0,0,0,38.911,21.945Z" fill="#b3e59f"/>
        <path id="Path_2173" data-name="Path 2173" d="M48.652,98.6l-1.734,13.221H73.081L71.348,98.6,60,96.424Z" fill="#dad8db"/>
        <path id="Path_2174" data-name="Path 2174" d="M71.348,98.6l-.571-4.355L60,92.069,49.223,94.246,48.652,98.6Z" fill="#c8c5c9"/>
        <path id="Path_2175" data-name="Path 2175" d="M7.258,92.069H112.742c7.258,0,7.258-5.427,7.258-9.435V78.942H0v3.692C0,86.642.521,92.069,7.258,92.069Z" fill="#eceaec"/>
        <path id="Path_2176" data-name="Path 2176" d="M81.121,113.637H38.879a1.815,1.815,0,0,1,0-3.629H81.121a1.815,1.815,0,1,1,0,3.629Z" fill="#c8c5c9"/>
        <path id="Path_2177" data-name="Path 2177" d="M112.742,89.892H7.258A7.258,7.258,0,0,1,0,82.634v4.355a7.258,7.258,0,0,0,7.258,7.258H112.742A7.258,7.258,0,0,0,120,86.989V82.634a7.258,7.258,0,0,1-7.258,7.258Z" fill="#dad8db"/>
      </g>
    </g>
  </g>
</svg>
