<svg xmlns="http://www.w3.org/2000/svg" width="484.488" height="484" viewBox="0 0 484.488 484">
  <g id="Group_93" data-name="Group 93" transform="translate(-199 -2479)">
    <text id="_33_" data-name="33%" transform="translate(679 2597)" fill="#1c1d1f" font-size="14" font-family="Roboto-Bold, Roboto" font-weight="700"><tspan x="-26.4" y="0">33%</tspan></text>
    <text id="_7_" data-name="7%" transform="translate(218 2704)" fill="#1c1d1f" font-size="14" font-family="Roboto-Bold, Roboto" font-weight="700"><tspan x="-18.368" y="0">7%</tspan></text>
    <text id="_12_" data-name="12%" transform="translate(334 2949)" fill="#1c1d1f" font-size="14" font-family="Roboto-Bold, Roboto" font-weight="700"><tspan x="-26.4" y="0">12%</tspan></text>
    <text id="_4_" data-name="4%" transform="translate(308 2546)" fill="#1c1d1f" font-size="14" font-family="Roboto-Bold, Roboto" font-weight="700"><tspan x="-18.368" y="0">4%</tspan></text>
    <text id="_3_" data-name="3%" transform="translate(412 2500)" fill="#1c1d1f" font-size="14" font-family="Roboto-Bold, Roboto" font-weight="700"><tspan x="-18.368" y="0">3%</tspan></text>
    <text id="_20_" data-name="20%" transform="translate(604 2959)" fill="#1c1d1f" font-size="14" font-family="Roboto-Bold, Roboto" font-weight="700"><tspan x="-26.4" y="0">20%</tspan></text>
    <text id="_6_" data-name="6%" transform="translate(258 2597)" fill="#1c1d1f" font-size="14" font-family="Roboto-Bold, Roboto" font-weight="700"><tspan x="-18.368" y="0">6%</tspan></text>
    <text id="_9_" data-name="9%" transform="translate(225 2829)" fill="#1c1d1f" font-size="14" font-family="Roboto-Bold, Roboto" font-weight="700"><tspan x="-18.368" y="0">9%</tspan></text>
    <text id="_4_2" data-name="4%" transform="translate(360 2513)" fill="#1c1d1f" font-size="14" font-family="Roboto-Bold, Roboto" font-weight="700"><tspan x="-18.368" y="0">4%</tspan></text>
    <text id="_2_" data-name="2%" transform="translate(451 2494)" fill="#1c1d1f" font-size="14" font-family="Roboto-Bold, Roboto" font-weight="700"><tspan x="-18.368" y="0">2%</tspan></text>
    <g id="Ring_Chart2" data-name="Ring Chart2" transform="translate(228 2507)">
      <path id="Path_2260" data-name="Path 2260" d="M0-150A227.493,227.493,0,0,1,195.813-38.31a227.493,227.493,0,0,1,3.541,225.4L159.483,165.17A181.994,181.994,0,0,0,156.65-15.15,182,182,0,0,0,0-104.5Z" transform="translate(227.493 150)" fill="#005187" stroke="#fff" stroke-width="1"/>
      <path id="Path_2261" data-name="Path 2261" d="M213.875,79.73A227.493,227.493,0,0,1-28.107,193.6l8.526-44.693A182,182,0,0,0,174,57.81Z" transform="translate(212.972 257.359)" fill="#3a9ddf" stroke="#fff" stroke-width="1"/>
      <path id="Path_2262" data-name="Path 2262" d="M20.065,187.024A227.493,227.493,0,0,1-121.353,97.278l36.809-26.743a182,182,0,0,0,113.134,71.8Z" transform="translate(164.8 263.933)" fill="#73bcee" stroke="#fff" stroke-width="1"/>
      <path id="Path_2263" data-name="Path 2263" d="M-106.706,129.824a227.493,227.493,0,0,1-43-119.433L-104.3,7.535a182,182,0,0,0,34.4,95.546Z" transform="translate(150.153 231.386)" fill="#65e8df" stroke="#fff" stroke-width="1"/>
      <path id="Path_2264" data-name="Path 2264" d="M-149.551,42.812a227.494,227.494,0,0,1,15.526-98.03l42.3,16.749a182,182,0,0,0-12.421,78.424Z" transform="translate(150 198.966)" fill="#f8fb99" stroke="#fff" stroke-width="1"/>
      <path id="Path_2265" data-name="Path 2265" d="M-139.466-30.7a227.493,227.493,0,0,1,45.682-71.984l33.167,31.146A182,182,0,0,0-97.163-13.949Z" transform="translate(155.442 174.445)" fill="#f1ad48" stroke="#fff" stroke-width="1"/>
      <path id="Path_2266" data-name="Path 2266" d="M-109.345-90.3a227.493,227.493,0,0,1,43.939-36.349l24.379,38.416A181.993,181.993,0,0,0-76.178-59.154Z" transform="translate(171.003 162.064)" fill="#ff7f00" stroke="#fff" stroke-width="1"/>
      <path id="Path_2267" data-name="Path 2267" d="M-80.374-118.378a227.493,227.493,0,0,1,51.6-24.28l14.06,43.272A181.994,181.994,0,0,0-55.995-79.963Z" transform="translate(185.97 153.793)" fill="#ff7b7b" stroke="#fff" stroke-width="1"/>
      <path id="Path_2268" data-name="Path 2268" d="M-46.353-139.477a227.49,227.49,0,0,1,41.787-9.34l5.7,45.14a181.99,181.99,0,0,0-33.429,7.472Z" transform="translate(203.546 150.611)" fill="red" stroke="#fff" stroke-width="1"/>
      <path id="Path_2269" data-name="Path 2269" d="M-18.8-148.206A227.494,227.494,0,0,1,9.712-150v45.5a181.989,181.989,0,0,0-22.81,1.435Z" transform="translate(217.781 150)" fill="#840000" stroke="#fff" stroke-width="1"/>
    </g>
  </g>
</svg>
