<svg xmlns="http://www.w3.org/2000/svg" width="120" height="120" viewBox="0 0 120 120">
  <g id="Group_86" data-name="Group 86" transform="translate(-900 -1242)">
    <rect id="NoPath_копия_39_" data-name="NoPath — копия (39)" width="120" height="120" transform="translate(900 1242)" fill="#fff"/>
    <g id="folder" transform="translate(900 1242)">
      <g id="Group_64" data-name="Group 64">
        <g id="Group_63" data-name="Group 63">
          <path id="Path_2226" data-name="Path 2226" d="M0,70.313,14.367,12.049A3.515,3.515,0,0,1,17.78,9.375h84.438a3.515,3.515,0,0,1,3.412,2.674L120,70.313a3.749,3.749,0,0,1-3.75,3.75H3.75A3.749,3.749,0,0,1,0,70.313Z" fill="#ffb454"/>
        </g>
      </g>
      <g id="Group_65" data-name="Group 65">
        <path id="Path_2227" data-name="Path 2227" d="M105.633,12.049a3.515,3.515,0,0,0-3.412-2.674H60V74.063h56.25a3.749,3.749,0,0,0,3.75-3.75Z" fill="#ff7d47"/>
      </g>
      <g id="Group_77" data-name="Group 77">
        <g id="Group_72" data-name="Group 72">
          <g id="Group_66" data-name="Group 66">
            <path id="Path_2228" data-name="Path 2228" d="M83.438,30.469H36.563a3.517,3.517,0,0,1-3.516-3.516V3.516A3.517,3.517,0,0,1,36.563,0H83.438a3.517,3.517,0,0,1,3.516,3.516V26.953A3.517,3.517,0,0,1,83.438,30.469Z" fill="#fff5f5"/>
          </g>
          <g id="Group_67" data-name="Group 67">
            <path id="Path_2229" data-name="Path 2229" d="M83.438,0H60V30.469H83.438a3.517,3.517,0,0,0,3.516-3.516V3.516A3.517,3.517,0,0,0,83.438,0Z" fill="#e2dff4"/>
          </g>
          <g id="Group_68" data-name="Group 68">
            <path id="Path_2230" data-name="Path 2230" d="M90.469,53.906H29.531a3.517,3.517,0,0,1-3.516-3.516V26.953a3.517,3.517,0,0,1,3.516-3.516H90.469a3.517,3.517,0,0,1,3.516,3.516V50.391A3.517,3.517,0,0,1,90.469,53.906Z" fill="#e2dff4"/>
          </g>
          <g id="Group_69" data-name="Group 69">
            <path id="Path_2231" data-name="Path 2231" d="M90.469,23.438H60V53.906H90.469a3.517,3.517,0,0,0,3.516-3.516V26.953A3.517,3.517,0,0,0,90.469,23.438Z" fill="#d5d3ea"/>
          </g>
          <g id="Group_70" data-name="Group 70">
            <path id="Path_2232" data-name="Path 2232" d="M97.5,105.469h-75a3.517,3.517,0,0,1-3.516-3.516V50.391A3.517,3.517,0,0,1,22.5,46.875h75a3.517,3.517,0,0,1,3.516,3.516v51.563A3.517,3.517,0,0,1,97.5,105.469Z" fill="#fff5f5"/>
          </g>
          <g id="Group_71" data-name="Group 71">
            <path id="Path_2233" data-name="Path 2233" d="M97.5,46.875H60v58.594H97.5a3.517,3.517,0,0,0,3.516-3.516V50.391A3.517,3.517,0,0,0,97.5,46.875Z" fill="#e2dff4"/>
          </g>
        </g>
        <g id="Group_73" data-name="Group 73">
          <path id="Path_2234" data-name="Path 2234" d="M116.484,120H3.516A3.517,3.517,0,0,1,0,116.484V70.313H38.906a3.514,3.514,0,0,1,3.335,2.4l3.886,11.658H73.873l3.886-11.658a3.514,3.514,0,0,1,3.335-2.4H120v46.172A3.517,3.517,0,0,1,116.484,120Z" fill="#ffe278"/>
        </g>
        <g id="Group_74" data-name="Group 74">
          <path id="Path_2235" data-name="Path 2235" d="M120,70.313H81.094a3.514,3.514,0,0,0-3.335,2.4L73.873,84.375H60V120h56.484A3.517,3.517,0,0,0,120,116.484Z" fill="#ffb454"/>
        </g>
        <g id="Group_75" data-name="Group 75">
          <path id="Path_2236" data-name="Path 2236" d="M76.406,105.469H43.594a3.516,3.516,0,0,1,0-7.031H76.406a3.516,3.516,0,0,1,0,7.031Z" fill="#ffb454"/>
        </g>
        <g id="Group_76" data-name="Group 76">
          <path id="Path_2237" data-name="Path 2237" d="M76.406,98.438H60v7.031H76.406a3.516,3.516,0,0,0,0-7.031Z" fill="#ff7d47"/>
        </g>
      </g>
    </g>
  </g>
</svg>
