<svg xmlns="http://www.w3.org/2000/svg" width="120" height="120" viewBox="0 0 120 120">
  <g id="Group_87" data-name="Group 87" transform="translate(-1435 -1242)">
    <rect id="NoPath_копия_39_" data-name="NoPath — копия (39)" width="120" height="120" transform="translate(1435 1242)" fill="#fff"/>
    <g id="cooperation" transform="translate(1435 1241.243)">
      <g id="Group_61" data-name="Group 61" transform="translate(1.758 11.105)">
        <g id="Group_60" data-name="Group 60">
          <g id="Group_43" data-name="Group 43" transform="translate(14.944 51.96)">
            <g id="Group_42" data-name="Group 42">
              <g id="Group_41" data-name="Group 41">
                <g id="Group_40" data-name="Group 40">
                  <g id="Group_39" data-name="Group 39">
                    <g id="Group_38" data-name="Group 38">
                      <g id="Group_35" data-name="Group 35">
                        <g id="Group_34" data-name="Group 34">
                          <path id="Path_2210" data-name="Path 2210" d="M91.936,93.713,64.375,77.391a2.975,2.975,0,0,1-1.043-4.076l1.41-2.38-5.576-3.3c-3.678-2.111-5.4-2.5-8.717-1.218l-3.617,1.4a7.7,7.7,0,0,1-6.7-.557l-9.681-5.708L16.7,84.759l12.4,7.316A7.7,7.7,0,0,1,31.27,94l4.177,5.417a48.063,48.063,0,0,0,10.123,8.008l15.943,9.445a4.429,4.429,0,1,0,4.515-7.62l4.981,2.951a4.429,4.429,0,0,0,4.515-7.62l3.32,1.967a4.429,4.429,0,1,0,4.515-7.62l4.064,2.408a4.428,4.428,0,0,0,4.514-7.62Z" transform="translate(-16.702 -61.552)" fill="#f9eae2"/>
                        </g>
                        <path id="Path_2211" data-name="Path 2211" d="M91.936,93.713l-10.09-5.975a.267.267,0,0,0-.365.369,4.548,4.548,0,0,1-.137,4.88,4.418,4.418,0,0,1-5.91,1.244l-1.509-.894a.655.655,0,0,0-.938.818,5.422,5.422,0,0,1-.171,4.069,3.514,3.514,0,0,1-5.167,1.69l-.655-.388a1.239,1.239,0,0,0-1.42.11.532.532,0,0,0-.535.731,4.55,4.55,0,0,1-.5,3.648,4.639,4.639,0,0,1-6.314,1.479l-1.778-1.054a.786.786,0,0,0-1.021.193.777.777,0,0,0-.141.671,4.556,4.556,0,0,1-3.763,5.648l9.9,5.863a4.5,4.5,0,0,0,6.074-1.361,4.429,4.429,0,0,0-1.468-6.205l4.889,2.9a4.5,4.5,0,0,0,6.074-1.361,4.429,4.429,0,0,0-1.468-6.205l3.32,1.967a4.429,4.429,0,1,0,4.515-7.62l3.972,2.353A4.5,4.5,0,0,0,93.4,99.917a4.428,4.428,0,0,0-1.468-6.2Z" transform="translate(-16.702 -61.552)" fill="#f5dbcc"/>
                      </g>
                      <g id="Group_36" data-name="Group 36" transform="translate(39.431 1.385)">
                        <path id="Path_2212" data-name="Path 2212" d="M89.549,62.937l-7.435,4.322a7.7,7.7,0,0,1-6.7.557l-4.079-1.6a6.556,6.556,0,0,0-4.005-.254l-6.25,1.582A6.555,6.555,0,0,0,56.132,73.9v8.343a2.139,2.139,0,0,0,2.135,2.14,6.437,6.437,0,0,0,6.441-6.437v-.353L91.459,93.43a7.7,7.7,0,0,1,1.689-1.355l10.15-5.93Z" transform="translate(-56.132 -62.937)" fill="#ecb784"/>
                      </g>
                      <g id="Group_37" data-name="Group 37" transform="translate(7.296 28.429)">
                        <path id="Path_2213" data-name="Path 2213" d="M34.53,96.991l-2.508,3.493a4.427,4.427,0,0,1-7.193-5.164l2.508-3.493a4.427,4.427,0,0,1,7.193,5.164Z" transform="translate(-23.998 -89.981)" fill="#ecb784"/>
                        <path id="Path_2214" data-name="Path 2214" d="M44.491,98.3l-5.276,7.349a4.427,4.427,0,1,1-7.193-5.164L37.3,93.135A4.427,4.427,0,1,1,44.491,98.3Z" transform="translate(-23.998 -89.981)" fill="#ecb784"/>
                        <path id="Path_2215" data-name="Path 2215" d="M51.684,103.463l-5.276,7.349a4.427,4.427,0,1,1-7.193-5.164L44.491,98.3a4.427,4.427,0,1,1,7.193,5.164Z" transform="translate(-23.998 -89.981)" fill="#ecb784"/>
                        <path id="Path_2216" data-name="Path 2216" d="M56.533,111.893l-1.754,2.444a4.427,4.427,0,1,1-7.193-5.164l1.754-2.444a4.427,4.427,0,1,1,7.193,5.164Z" transform="translate(-23.998 -89.981)" fill="#ecb784"/>
                      </g>
                    </g>
                  </g>
                </g>
              </g>
            </g>
          </g>
          <g id="Group_46" data-name="Group 46" transform="translate(0 31.584)">
            <g id="Group_44" data-name="Group 44" transform="translate(80.113 0)">
              <path id="Path_2217" data-name="Path 2217" d="M115.228,42.142,83.7,60.937a3.744,3.744,0,0,0-1.3,5.124L96.811,90.4a3.744,3.744,0,0,0,5.138,1.308L115.716,83.5a5.178,5.178,0,0,0,2.527-4.448v-35.2a1.993,1.993,0,0,0-3.014-1.713Z" transform="translate(-81.87 -41.858)" fill="#407093"/>
            </g>
            <path id="Path_2218" data-name="Path 2218" d="M103.3,49.253V72.128a17.365,17.365,0,0,1-8.474,14.916L96.812,90.4a3.744,3.744,0,0,0,5.138,1.308L115.716,83.5a5.178,5.178,0,0,0,2.527-4.448v-35.2a1.993,1.993,0,0,0-3.014-1.712Z" transform="translate(-1.758 -41.858)" fill="#365e7d"/>
            <g id="Group_45" data-name="Group 45">
              <path id="Path_2219" data-name="Path 2219" d="M4.772,42.142,36.3,60.936a3.744,3.744,0,0,1,1.3,5.124L23.189,90.4A3.744,3.744,0,0,1,18.051,91.7L4.284,83.5a5.178,5.178,0,0,1-2.527-4.448v-35.2a1.994,1.994,0,0,1,3.014-1.713Z" transform="translate(-1.758 -41.858)" fill="#407093"/>
            </g>
          </g>
          <g id="Group_59" data-name="Group 59" transform="translate(33.233)">
            <g id="Group_58" data-name="Group 58">
              <g id="Group_57" data-name="Group 57">
                <g id="Group_56" data-name="Group 56">
                  <g id="Group_55" data-name="Group 55">
                    <g id="Group_54" data-name="Group 54">
                      <g id="Group_53" data-name="Group 53">
                        <g id="Group_52" data-name="Group 52">
                          <g id="Group_51" data-name="Group 51">
                            <g id="Group_50" data-name="Group 50">
                              <g id="Group_49" data-name="Group 49">
                                <g id="Group_48" data-name="Group 48">
                                  <path id="Path_2220" data-name="Path 2220" d="M80.15,44.8H39.85a4.859,4.859,0,0,1-4.859-4.859V15.964a4.859,4.859,0,0,1,4.859-4.859h40.3a4.859,4.859,0,0,1,4.859,4.859V39.942A4.86,4.86,0,0,1,80.15,44.8Z" transform="translate(-34.991 -11.105)" fill="#ddb7a0"/>
                                  <g id="Group_47" data-name="Group 47">
                                    <path id="Path_2221" data-name="Path 2221" d="M80.15,11.105H65.322a4.859,4.859,0,0,1,4.859,4.859V39.942A4.859,4.859,0,0,1,65.322,44.8H80.15a4.859,4.859,0,0,0,4.859-4.859V15.964a4.859,4.859,0,0,0-4.859-4.859Z" transform="translate(-34.991 -11.105)" fill="#d6a889"/>
                                    <path id="Path_2222" data-name="Path 2222" d="M85.009,18.044v-2.08a4.859,4.859,0,0,0-4.859-4.859H39.85a4.859,4.859,0,0,0-4.859,4.859v2.08A8.806,8.806,0,0,0,43.8,26.85H76.2A8.806,8.806,0,0,0,85.009,18.044Z" transform="translate(-34.991 -11.105)" fill="#cc9675"/>
                                    <path id="Path_2223" data-name="Path 2223" d="M70.182,15.964V26.85H76.2a8.806,8.806,0,0,0,8.805-8.805v-2.08A4.859,4.859,0,0,0,80.15,11.1H65.322A4.86,4.86,0,0,1,70.182,15.964Z" transform="translate(-34.991 -11.105)" fill="#c4845c"/>
                                  </g>
                                </g>
                              </g>
                            </g>
                          </g>
                        </g>
                      </g>
                    </g>
                  </g>
                </g>
              </g>
            </g>
          </g>
        </g>
      </g>
      <g id="Group_62" data-name="Group 62" transform="translate(0 0.757)">
        <path id="Path_2224" data-name="Path 2224" d="M114.328,40.632,82.8,59.427a5.514,5.514,0,0,0-2.321,6.693,5.9,5.9,0,0,1-4.42.06l-4.079-1.6a8.262,8.262,0,0,0-5.079-.322l-6.249,1.582q-.364.092-.712.214c-3.818-2.18-6.092-2.831-10.121-1.273l-3.617,1.4a5.91,5.91,0,0,1-5.174-.432l-1.208-.712A5.514,5.514,0,0,0,37.2,59.427L5.672,40.632A3.751,3.751,0,0,0,0,43.855v35.2a6.967,6.967,0,0,0,3.384,5.957l13.767,8.206A5.5,5.5,0,0,0,24.6,91.461l.589.347L23.4,94.295a6.185,6.185,0,0,0,6.1,9.7,6.18,6.18,0,0,0,7.2,5.161,6.184,6.184,0,0,0,8.668,4.713,6.188,6.188,0,0,0,10.627,1.776l4.624,2.739a6.186,6.186,0,0,0,9.315-4.777l.18.107a6.192,6.192,0,0,0,9.335-5.012,6.2,6.2,0,0,0,7.824-5.478,6.187,6.187,0,0,0,7.046-9.793l1.812-1.059a5.5,5.5,0,0,0,6.72.845l3.328-1.984a1.758,1.758,0,0,0-1.8-3.02l-3.328,1.984a1.987,1.987,0,0,1-2.356-.238c-.011-.1-14.788-24.792-14.788-24.792a1.989,1.989,0,0,1,.692-2.718l31.53-18.794a.234.234,0,0,1,.356.2v35.2a3.436,3.436,0,0,1-1.669,2.937l-3.323,1.981a1.758,1.758,0,0,0,1.8,3.02l3.323-1.981A6.967,6.967,0,0,0,120,79.051v-35.2a3.751,3.751,0,0,0-5.672-3.222ZM67.76,67.664a4.773,4.773,0,0,1,2.932.186l4.088,1.606a9.394,9.394,0,0,0,7.429-.258L94.194,89.429l-1.942,1.135a9.413,9.413,0,0,0-1.013.693L65.6,76.077a1.758,1.758,0,0,0-2.653,1.513v.353a4.679,4.679,0,0,1-4.679,4.679.392.392,0,0,1-.382-.382V73.9a4.794,4.794,0,0,1,2.574-4.253,1.758,1.758,0,0,0,.225-.11,4.832,4.832,0,0,1,.821-.289Zm-47.3,22.749a1.975,1.975,0,0,1-1.507-.219L5.184,81.989a3.436,3.436,0,0,1-1.669-2.937v-35.2a.216.216,0,0,1,.119-.2.239.239,0,0,1,.119-.034.225.225,0,0,1,.118.036L35.4,62.446a1.989,1.989,0,0,1,.692,2.718L21.676,89.5a1.972,1.972,0,0,1-1.219.912Zm8.4,10.123a2.669,2.669,0,0,1-2.6-4.191l2.508-3.493a2.671,2.671,0,0,1,.2-.241,1.764,1.764,0,0,0,.148-.15A2.67,2.67,0,0,1,33.1,95.966l0,.006-2.5,3.488a2.652,2.652,0,0,1-1.736,1.077Zm5.2,4.7a2.669,2.669,0,0,1-.612-3.725l2.508-3.493h0l2.768-3.855a2.652,2.652,0,0,1,1.736-1.078,2.692,2.692,0,0,1,.438-.036,2.671,2.671,0,0,1,2.163,4.227l-5.276,7.349a2.673,2.673,0,0,1-3.725.611Zm9.183,5.63a2.67,2.67,0,0,1-2.6-4.191l0-.006,5.272-7.343a2.67,2.67,0,1,1,4.337,3.114l-5.276,7.349a2.653,2.653,0,0,1-1.736,1.078Zm6.381,3.059a2.669,2.669,0,0,1-.612-3.725l.005-.007,1.751-2.439a2.67,2.67,0,0,1,4.335,3.116l-1,1.4-.031.043-.72,1a2.672,2.672,0,0,1-3.725.611ZM91.977,98.884a2.674,2.674,0,0,1-3.659.936l-4.064-2.407-.005,0L71.663,89.953a1.758,1.758,0,1,0-1.792,3.024l12.592,7.46h0a2.671,2.671,0,0,1-2.725,4.594l-3.312-1.962-.008,0-.005,0L67.142,97.57a1.758,1.758,0,0,0-1.792,3.024l9.272,5.493.005,0a2.671,2.671,0,0,1-2.723,4.6l-4.971-2.945-.009-.006-3.636-2.154a1.758,1.758,0,1,0-1.792,3.025l3.635,2.154,0,0a2.671,2.671,0,0,1-2.727,4.593l-4.351-2.578a6.183,6.183,0,0,0-4.23-9.588,6.184,6.184,0,0,0-6.821-8.4,6.184,6.184,0,0,0-10.624-3.31,6.183,6.183,0,0,0-8.744-2.311l-1.246-.736,11.96-20.187.883.521a9.4,9.4,0,0,0,8.231.685l3.617-1.4a5.693,5.693,0,0,1,5.506.187A8.3,8.3,0,0,0,54.375,73.9V82.24a3.9,3.9,0,0,0,3.892,3.9h.005a8.209,8.209,0,0,0,7.808-5.693l24.484,14.5a1.744,1.744,0,0,0,.25.122,1.778,1.778,0,0,0,.227.16,2.674,2.674,0,0,1,.936,3.659Z" transform="translate(0 0.756)"/>
        <path id="Path_2225" data-name="Path 2225" d="M39.85,46.559h40.3a6.625,6.625,0,0,0,6.617-6.617V15.965A6.625,6.625,0,0,0,80.15,9.348h-9.7V6.562a5.812,5.812,0,0,0-5.8-5.806H55.356a5.812,5.812,0,0,0-5.8,5.806V9.348h-9.7a6.625,6.625,0,0,0-6.617,6.617V29.173a1.758,1.758,0,1,0,3.516,0V25.906a10.521,10.521,0,0,0,7.047,2.7h1.376v1.934a1.758,1.758,0,0,0,3.516,0V28.607H71.312v1.934a1.758,1.758,0,1,0,3.516,0V28.607H76.2a10.521,10.521,0,0,0,7.048-2.7V39.942a3.105,3.105,0,0,1-3.1,3.1H39.85a3.105,3.105,0,0,1-3.1-3.1V37.391a1.758,1.758,0,1,0-3.516,0v2.551a6.625,6.625,0,0,0,6.617,6.617Zm13.217-40a2.292,2.292,0,0,1,2.289-2.29h9.288a2.292,2.292,0,0,1,2.289,2.29V9.348H53.067V6.562ZM76.2,25.092H74.828V23.158a1.758,1.758,0,1,0-3.516,0v1.934H48.688V23.158a1.758,1.758,0,1,0-3.516,0v1.934H43.8a7.055,7.055,0,0,1-7.047-7.047v-2.08a3.1,3.1,0,0,1,3.1-3.1h40.3a3.105,3.105,0,0,1,3.1,3.1v2.08A7.055,7.055,0,0,1,76.2,25.092Z" transform="translate(0 -0.757)"/>
      </g>
    </g>
  </g>
</svg>
